<svg xmlns="http://www.w3.org/2000/svg" xmlns:xlink="http://www.w3.org/1999/xlink" width="51.862" height="56.7" viewBox="0 0 51.862 56.7">
  <defs>
    <filter id="Icon_awesome-calendar-alt" x="0" y="0" width="51.862" height="56.7" filterUnits="userSpaceOnUse">
      <feOffset dy="3" input="SourceAlpha"/>
      <feGaussianBlur stdDeviation="3" result="blur"/>
      <feFlood flood-color="#fff" flood-opacity="0.31"/>
      <feComposite operator="in" in2="blur"/>
      <feComposite in="SourceGraphic"/>
    </filter>
  </defs>
  <g transform="matrix(1, 0, 0, 1, 0, 0)" filter="url(#Icon_awesome-calendar-alt)">
    <path id="Icon_awesome-calendar-alt-2" data-name="Icon awesome-calendar-alt" d="M0,35.072A3.629,3.629,0,0,0,3.628,38.7H30.234a3.629,3.629,0,0,0,3.628-3.628V14.512H0ZM24.187,20.257a.91.91,0,0,1,.907-.907h3.023a.91.91,0,0,1,.907.907V23.28a.91.91,0,0,1-.907.907H25.095a.91.91,0,0,1-.907-.907Zm0,9.675a.91.91,0,0,1,.907-.907h3.023a.91.91,0,0,1,.907.907v3.023a.91.91,0,0,1-.907.907H25.095a.91.91,0,0,1-.907-.907Zm-9.675-9.675a.91.91,0,0,1,.907-.907h3.023a.91.91,0,0,1,.907.907V23.28a.91.91,0,0,1-.907.907H15.42a.91.91,0,0,1-.907-.907Zm0,9.675a.91.91,0,0,1,.907-.907h3.023a.91.91,0,0,1,.907.907v3.023a.91.91,0,0,1-.907.907H15.42a.91.91,0,0,1-.907-.907ZM4.837,20.257a.91.91,0,0,1,.907-.907H8.768a.91.91,0,0,1,.907.907V23.28a.91.91,0,0,1-.907.907H5.745a.91.91,0,0,1-.907-.907Zm0,9.675a.91.91,0,0,1,.907-.907H8.768a.91.91,0,0,1,.907.907v3.023a.91.91,0,0,1-.907.907H5.745a.91.91,0,0,1-.907-.907Zm25.4-25.095H26.606V1.209A1.213,1.213,0,0,0,25.4,0H22.978a1.213,1.213,0,0,0-1.209,1.209V4.837H12.094V1.209A1.213,1.213,0,0,0,10.884,0H8.466A1.213,1.213,0,0,0,7.256,1.209V4.837H3.628A3.629,3.629,0,0,0,0,8.466v3.628H33.862V8.466A3.629,3.629,0,0,0,30.234,4.837Z" transform="translate(9 6)" fill="#fff"/>
  </g>
</svg>
